<?xml version="1.0" encoding="utf-8"?>
<svg viewBox="271 96 76 65" xmlns="http://www.w3.org/2000/svg">
	<path d="M 340.128 110.28 C 343.442 110.28 346.128 112.966 346.128 116.28 L 346.128 142.135 C 346.128 145.449 343.442 148.135 340.128 148.135 L 339.363 148.135 L 339.363 159.57 L 322.144 148.135 L 300.906 148.135 C 297.592 148.135 294.906 145.449 294.906 142.135 L 294.906 135.73 L 317.424 135.73 C 320.738 135.73 323.424 133.043 323.424 129.73 L 323.424 110.28 Z" style="stroke: rgb(0, 0, 0); stroke-width: 2px; fill: rgba(255, 255, 255, 0.5);"/>
	<path d="M 279.368 147.657 L 279.368 135.732 L 278.2 135.732 C 274.887 135.732 272.2 133.045 272.2 129.732 L 272.2 103.877 C 272.2 100.563 274.887 97.877 278.2 97.877 L 317.422 97.877 C 320.736 97.877 323.422 100.563 323.422 103.877 L 323.422 129.732 C 323.422 133.045 320.736 135.732 317.422 135.732 L 294.644 135.732 L 279.368 147.657 Z" style="stroke-width: 2px; stroke: rgb(0, 0, 0); fill: rgba(255, 255, 255, 0.5);"/>
	<ellipse style="" cx="285.227" cy="116.709" rx="2.937" ry="2.937"/>
	<ellipse style="" cx="297.638" cy="116.718" rx="2.937" ry="2.937"/>
	<ellipse style="" cx="310.234" cy="116.864" rx="2.937" ry="2.937"/>
</svg>