<svg viewBox="271 96 76 65" xmlns="http://www.w3.org/2000/svg"><path d="M340.128 110.28a6 6 0 0 1 6 6v25.855a6 6 0 0 1-6 6h-.765v11.435l-17.219-11.435h-21.238a6 6 0 0 1-6-6v-6.405h22.518a6 6 0 0 0 6-6v-19.45Z" style="stroke:#000;stroke-width:2px;fill:#ffffff80"/><path d="M279.368 147.657v-11.925H278.2a6 6 0 0 1-6-6v-25.855a6 6 0 0 1 6-6h39.222a6 6 0 0 1 6 6v25.855a6 6 0 0 1-6 6h-22.778l-15.276 11.925Z" style="stroke-width:2px;stroke:#000;fill:#ffffff80"/><circle cx="285.227" cy="116.709" r="2.937"/><circle cx="297.638" cy="116.718" r="2.937"/><circle cx="310.234" cy="116.864" r="2.937"/></svg>