<svg viewBox="13 15 40 30" width="40" height="40" xmlns="http://www.w3.org/2000/svg" style="filter:drop-shadow(1px 1px #fff)drop-shadow(-1px -1px #fff)drop-shadow(-1px 1px #fff)drop-shadow(1px -1px #fff)"><path style="fill:#d8d8d8;stroke:#000;stroke-width:2px;stroke-linecap:round" d="m15.307 29.958 27.826.168m-7.746-7.589 7.651 7.239"/><path style="stroke:#000;fill:none;stroke-linejoin:round;stroke-width:2px;stroke-linecap:round" d="m35.016 37.218 8.13-7.253m-13.647-5.823s-.095-3.913-.086-6.707c.004-1.415 1.212-2.633 2.625-2.715 3.628-.211 9.958-.236 13.998-.073 1.985.08 2.491.126 3.303 1.087.613.726.417 2.148.417 2.148l-.006 24.099s-.155 1.882-.746 2.53c-.611.67-2.447.906-2.447.906l-14.007-.033s-1.585.127-2.346-.636c-.847-.849-.886-2.969-.886-2.969v-5.996"/></svg>