<svg viewBox="375.9 0.435 1192.985 1193.076" width="16" height="16" xmlns="http://www.w3.org/2000/svg"><path d="M936 1C836 8.1 748.9 35.1 666 84.8c-43.2 25.9-78.8 53.7-115.1 90.1-32.9 33-52.5 57-77.3 94.6-51.5 78-83.1 165-94.1 259-4.8 41.9-4.8 92.7 0 136.5 8.3 74.2 31.5 148.3 67.3 214.5 56.8 105.3 144.3 191.6 250.2 246.8 112.2 58.5 241.7 79.7 367.5 60.1 102.6-15.9 198.3-58.1 281-123.9 26.6-21.2 60.1-53.8 82.8-80.8 64.2-76.3 108.7-167.9 128.6-264.7 21.1-103.1 14.2-213.7-19.6-312.4-11.9-34.9-31.8-78.4-49.8-109.1-48.6-82.7-116.9-153.1-198-204.2-80.2-50.5-170.5-80.6-268-89.3-16.1-1.5-70-2.1-85.5-1zm85 90.5c40.3 4.3 75 11.5 109.5 23 89.8 29.8 167.5 82.3 229.5 155.1 61.1 71.6 102 162.9 114.9 256.4 3.8 27.3 4.5 39.2 4.5 70.5 0 40.4-2.3 64.1-9.9 102-21.1 104.8-76.8 202.1-157.5 275-79.7 72-176 115.3-285 128.1-18.5 2.2-71.5 3-91.8 1.5-138.2-10.6-264-75.4-352.6-181.5C518.7 845 480.1 755 467.8 653.9c-1.9-16-2.2-23.3-2.2-56.4-.1-41.6.8-52.6 6.5-86.6 20.6-122.5 89-236.8 188-314.1C740.4 134.1 837.6 97.1 940 90.1c18.3-1.3 63.2-.5 81 1.4z"/><path d="M972.7 103.7c-.4.3-.7 13.6-.7 29.5V162h35v-59h-16.8c-9.3 0-17.2.3-17.5.7zM809.8 262.6c-6.9 2.1-16.4 9.8-20.7 16.8-3.4 5.7-3.6 6.3-3.6 15v9.1l39.4 64.5c21.7 35.5 48.5 79.3 59.6 97.5 11.1 18.1 27.8 45.4 37 60.5 9.2 15.1 17.4 28.4 18.1 29.5 1.3 2 1.6 1.8 8.1-4.3 14-13.2 35.3-19.7 53.1-16.3 3.7.7 4.2.6 3.7-.7-.3-.9-17.5-29.3-38.2-63.2-43.9-71.7-66-107.9-98.4-161-12.9-21.1-25-40.1-27-42.1s-5.8-4.4-8.4-5.3c-5.9-2-16.3-2-22.7 0zm389.3 192.1c-1.3.3-13.2 5.2-26.5 11-50.4 21.9-61.5 26.8-111.3 48.6l-51.3 22.4 8.5 4.2c16.3 8 29.1 24.4 33.1 42 .9 3.9 2 7.1 2.5 7.1.7 0 72.1-31 153.4-66.6 9.3-4.1 18.2-8.7 19.8-10.2 1.6-1.5 4.1-5 5.5-7.7 2.3-4.4 2.7-6.2 2.6-14 0-11.3-2.4-17.9-9.4-25.7-7.4-8.3-18.4-12.8-26.9-11.1z"/><path d="M981.5 538.6c-9 2.1-11.9 3.1-18 6.2-9.5 4.7-20.8 16.1-25.3 25.5-4.4 9.3-6.2 16.7-6.2 26.2.1 20.2 9.2 37.7 25.7 48.8 14.9 10.1 34.3 12.9 50.7 7.3 10.6-3.6 15.9-6.9 23.6-14.6 17.9-17.9 22.2-45 10.7-68-6.4-12.9-21-25-35.6-29.6-4.7-1.5-21.9-2.7-25.6-1.8ZM487 611h56v-35h-56Zm923 0h53v-35h-53Zm-437 476h35v-59h-35Z"/></svg>