<svg version="1.0" xmlns="http://www.w3.org/2000/svg" width="40" height="40" viewBox="0 0 1920 1738"><path d="M936 1C836 8.1 748.9 35.1 666 84.8c-43.2 25.9-78.8 53.7-115.1 90.1-32.9 33-52.5 57-77.3 94.6-51.5 78-83.1 165-94.1 259-4.8 41.9-4.8 92.7 0 136.5 8.3 74.2 31.5 148.3 67.3 214.5 56.8 105.3 144.3 191.6 250.2 246.8 112.2 58.5 241.7 79.7 367.5 60.1 102.6-15.9 198.3-58.1 281-123.9 26.6-21.2 60.1-53.8 82.8-80.8 64.2-76.3 108.7-167.9 128.6-264.7 21.1-103.1 14.2-213.7-19.6-312.4-11.9-34.9-31.8-78.4-49.8-109.1-48.6-82.7-116.9-153.1-198-204.2-80.2-50.5-170.5-80.6-268-89.3-16.1-1.5-70-2.1-85.5-1zm85 90.5c40.3 4.3 75 11.5 109.5 23 89.8 29.8 167.5 82.3 229.5 155.1 61.1 71.6 102 162.9 114.9 256.4 3.8 27.3 4.5 39.2 4.5 70.5 0 40.4-2.3 64.1-9.9 102-21.1 104.8-76.8 202.1-157.5 275-79.7 72-176 115.3-285 128.1-18.5 2.2-71.5 3-91.8 1.5-138.2-10.6-264-75.4-352.6-181.5C518.7 845 480.1 755 467.8 653.9c-1.9-16-2.2-23.3-2.2-56.4-.1-41.6.8-52.6 6.5-86.6 20.6-122.5 89-236.8 188-314.1C740.4 134.1 837.6 97.1 940 90.1c18.3-1.3 63.2-.5 81 1.4z"/><path d="M972.7 103.7c-.4.3-.7 13.6-.7 29.5V162h35v-59h-16.8c-9.3 0-17.2.3-17.5.7zM809.8 262.6c-6.9 2.1-16.4 9.8-20.7 16.8-3.4 5.7-3.6 6.3-3.6 15v9.1l39.4 64.5c21.7 35.5 48.5 79.3 59.6 97.5 11.1 18.1 27.8 45.4 37 60.5 9.2 15.1 17.4 28.4 18.1 29.5 1.3 2 1.6 1.8 8.1-4.3 14-13.2 35.3-19.7 53.1-16.3 3.7.7 4.2.6 3.7-.7-.3-.9-17.5-29.3-38.2-63.2-43.9-71.7-66-107.9-98.4-161-12.9-21.1-25-40.1-27-42.1s-5.8-4.4-8.4-5.3c-5.9-2-16.3-2-22.7 0zM1199.1 454.7c-1.3.3-13.2 5.2-26.5 11-50.4 21.9-61.5 26.8-111.3 48.6l-51.3 22.4 8.5 4.2c16.3 8 29.1 24.4 33.1 42 .9 3.9 2 7.1 2.5 7.1.7 0 72.1-31 153.4-66.6 9.3-4.1 18.2-8.7 19.8-10.2 1.6-1.5 4.1-5 5.5-7.7 2.3-4.4 2.7-6.2 2.6-14 0-11.3-2.4-17.9-9.4-25.7-7.4-8.3-18.4-12.8-26.9-11.1z"/><path d="M981.5 538.6c-9 2.1-11.9 3.1-18 6.2-9.5 4.7-20.8 16.1-25.3 25.5-4.4 9.3-6.2 16.7-6.2 26.2.1 20.2 9.2 37.7 25.7 48.8 14.9 10.1 34.3 12.9 50.7 7.3 10.6-3.6 15.9-6.9 23.6-14.6 17.9-17.9 22.2-45 10.7-68-6.4-12.9-21-25-35.6-29.6-4.7-1.5-21.9-2.7-25.6-1.8zM487 593.5V611h56v-35h-56v17.5zM1410 593.5V611h53v-35h-53v17.5zM973 1057.5v29.5h35v-59h-35v29.5zM164.8 1223.1c-10.5 2.4-22.3 11-28.5 20.7-11.5 17.9-9.7 42 4.3 58.1 4.8 5.5 14 11.6 21.1 13.8l5.3 1.7-.2 35-.3 35.1-3 .3c-6.3.6-18.7 4.3-26.1 7.8-17.2 8.2-31.9 22.7-40.4 39.9-2.7 5.5-5.4 12.1-6.1 14.7l-1.1 4.8H0v39l44.6.2 44.6.3 3.3 9.3c8.5 23.6 27.4 43.3 50.5 52.5 19.9 7.9 45.4 7.6 65.9-.7 22.1-9 41.4-29.7 49.2-53l2.7-8.1h343.4l2.7 8c5.1 15 11.6 25 23.3 36 12.1 11.5 27.9 19.5 44.1 22.5l6.7 1.2v79.5l-5.1 1.1c-11.6 2.7-21.9 9.9-28.9 20.2-5.7 8.4-8 16.1-8 26.7.1 21.6 12.6 38.8 33.3 45.8 30.4 10.2 62.6-13.3 62.7-45.5 0-18.6-10.5-35.5-27.1-43.5-4-1.9-8.1-3.5-9.1-3.5-1.7 0-1.8-2.3-1.8-40.4v-40.4l4.8-.6c8.4-1.2 19.1-4.5 26.5-8.2 21.9-11 37.2-28.6 45.1-52.2l2.3-6.7h343.5l2.2 7c4.6 14.3 12.1 26 23.6 36.9 12.7 11.9 25.7 18.7 42.8 22.3 10.4 2.1 30.9 1.3 40.7-1.6 25.1-7.5 44.6-24.1 55.4-47.2 2.2-4.6 4.5-10.5 5.1-13.1l1.2-4.8H1633.9l1.2 4.2c7.7 29.2 32 53 62.2 61.3l8.2 2.2.3 39.9.2 39.9-5.7 1.4c-8.4 1.9-17 6.8-23.3 13.1-26.2 26.5-13.6 71.1 22.7 80.5 21.6 5.6 44.7-5.3 54.9-26.1l3.9-7.8v-12.5c0-11.5-.2-13.2-2.8-19.2-4.9-11.7-16-22.1-28.2-26.5l-6-2.2V1562.5l7.5-.7c33.1-3.3 63.2-27.4 73.5-59.2l2.8-8.6H1920v-39h-114.9l-1.5-5.3c-4-13.7-13.1-28.2-24.2-38.8-46.7-44.1-123.1-24.2-143.3 37.3l-2.3 6.8H1290.5l-2.9-8.6c-7.5-21.9-24.5-40.8-45.7-50.8-7.5-3.6-19.6-7.1-28.1-8.1l-4.8-.6V1318l2.8-.6c26-5.7 42.3-28 39.1-53.4-1.9-15.1-9.6-27.1-22.8-35.4-14.3-9.1-36.4-8.8-50.6.6-11.3 7.5-19.5 20-21.8 33.1-3.9 22.9 10.8 46.4 33.6 53.7l3.7 1.2v70.5l-7.7 1.6c-29.1 6.3-53.4 28.2-63.4 57l-2.8 8.2-172 .3-171.9.2-1.1-4.7c-1.6-6.2-7.1-17.9-11.2-24-13-19-29.8-30.8-52.9-37-10-2.6-31.1-2.5-41.5.4-16.7 4.6-29.8 12.3-41.5 24.3-10.2 10.5-19.5 26.7-21.6 37.6l-.6 3.4H260.5l-1.8-6.1c-8.7-29.5-36.3-54.7-65.7-59.9-3.6-.6-7.5-1.3-8.7-1.6l-2.3-.4v-68.8l5.3-1.2c17.4-4.1 31.6-18 36.2-35.5 6.2-24.1-8.4-50.1-32.4-57.5-6.7-2.1-19.4-2.6-26.3-.9z"/></svg>