<?xml version="1.0" encoding="utf-8"?>
<svg viewBox="985.307 49.123 68.198 68.198" width="35" height="35" xmlns="http://www.w3.org/2000/svg">
  <ellipse style="fill: rgba(255, 255, 255, 0.5);" cx="1019.356" cy="83.172" rx="32.083" ry="32.083" />
  <path d="M 1053.505 83.222 C 1053.505 102.054 1038.238 117.321 1019.406 117.321 C 1000.574 117.321 985.307 102.054 985.307 83.222 C 985.307 64.39 1000.574 49.123 1019.406 49.123 C 1038.238 49.123 1053.505 64.39 1053.505 83.222 Z M 1019.322 51.082 C 1001.603 51.082 987.239 65.446 987.239 83.165 C 987.239 100.884 1001.603 115.248 1019.322 115.248 C 1037.041 115.248 1051.405 100.884 1051.405 83.165 C 1051.405 65.446 1037.041 51.082 1019.322 51.082 Z M 1007.353 63.892 L 1008.833 62.889 L 1019.412 78.496 L 1017.932 79.5 Z M 1019.54 52.225 L 1021.328 52.225 L 1021.328 56.948 L 1019.54 56.948 Z M 1019.456 109.118 L 1021.244 109.118 L 1021.244 113.841 L 1019.456 113.841 Z M 1050.318 82.302 L 1050.318 84.09 L 1045.595 84.09 L 1045.595 82.302 Z M 993.424 82.218 L 993.424 84.006 L 988.701 84.006 L 988.701 82.218 Z M 1022.045 82.968 C 1022.045 83.688 1021.461 84.272 1020.741 84.272 C 1020.021 84.272 1019.437 83.688 1019.437 82.968 C 1019.437 82.248 1020.021 81.664 1020.741 81.664 C 1021.461 81.664 1022.045 82.248 1022.045 82.968 Z M 1034.696 74.739 L 1035.469 76.351 L 1024.369 81.675 L 1023.596 80.063 Z" />
</svg>