<?xml version="1.0" encoding="utf-8"?>
<svg viewBox="62 12 39 36" width="40" height="40" xmlns="http://www.w3.org/2000/svg"
  style="filter: drop-shadow(1px 1px 0px rgba(255,255,255,0.53)) drop-shadow(-1px -1px 0px rgba(255,255,255,0.53)) drop-shadow(-1px 1px 0px rgba(255,255,255,0.53)) drop-shadow(1px -1px 0px rgba(255,255,255,0.53))">
  <path style="stroke-width:1px;stroke-linecap:round;stroke:rgb(0,0,0);transform-origin:78.19px 29.811px"
    d="m64.277 29.727 27.826.168" />
  <path
    style="stroke-width:1px;stroke-linecap:round;stroke:rgb(0,0,0);transform-origin:68.1975px 33.6965px"
    d="m64.372 30.077 7.651 7.239" />
  <path
    style="fill:none;stroke-linejoin:round;stroke-width:1px;stroke-linecap:round;stroke:rgb(0,0,0);transform-origin:68.329px 26.2615px"
    d="m64.264 29.888 8.13-7.253" />
  <path style="stroke:rgb(0,0,0);fill:none;stroke-linejoin:round;stroke-width:1px;stroke-linecap:round"
    d="M78.023 23.896s-.095-3.913-.086-6.707c.004-1.415 1.212-2.633 2.625-2.715 3.628-.211 9.958-.236 13.998-.073 1.985.08 2.491.126 3.303 1.087.613.726.417 2.148.417 2.148l-.006 24.099s-.155 1.882-.746 2.53c-.611.67-2.447.906-2.447.906l-14.007-.033s-1.585.127-2.346-.636c-.847-.849-.886-2.969-.886-2.969v-5.996" />
</svg>