<svg viewBox="0 0 153 153" width="152" height="152" version="1.0" xmlns="http://www.w3.org/2000/svg" style="background-color:#e7d1bd"><g fill="#e13940"><path d="M2 35.5V44h16V27H2v8.5zM20 35.5V44h17V27H20v8.5zM39 35.5V44h17V27H39v8.5zM77 35.5V44h17V27H77v8.5zM96 35.5V44h16V27H96v8.5zM114 35.5V44h17V27h-17v8.5zM2 54v8h16V46H2v8zM39 54v8h17V46H39v8zM77 54v8h17V46H77v8zM114 54v8h17V46h-17v8zM2 72.5V81h16V64H2v8.5zM20.7 64.7c-.4.3-.7 4.2-.7 8.5V81h17V64h-7.8c-4.3 0-8.2.3-8.5.7zM39 72.5V81h17.1l-.3-8.3-.3-8.2-8.2-.3-8.3-.3v8.6zM77 72.5V81h17V64H77v8.5zM96 72.5V81h16V64H96v8.5zM114 72.5V81h17V64h-17v8.5zM133 72.5V81h16V64h-16v8.5zM2 91.5v8.5h16V83H2v8.5zM77 91.5v8.6l8.3-.3 8.2-.3.3-8.3.3-8.2H77v8.5zM133 91.5v8.5h16V83h-16v8.5zM2 109.5v8.5h16v-17H2v8.5zM77 109.5v8.5h17.1l-.3-8.3-.3-8.2-8.2-.3-8.3-.3v8.6zM96 109.6v8.4h16v-17.1l-8 .2-8 .2v8.3zM114 109.5v8.5h17.1l-.3-8.3-.3-8.2-8.2-.3-8.3-.3v8.6zM133 109.5v8.5h16v-17h-16v8.5z"/></g></svg>