<?xml version="1.0" encoding="utf-8"?>
<svg viewBox="52.763 26.985 128 128" width="40" height="40" xmlns="http://www.w3.org/2000/svg"
	xmlns:xlink="http://www.w3.org/1999/xlink">
	<path
		d="M116.763 26.985a63.992 63.992 0 0 0-45.25 18.745 64.02 64.02 0 0 0-18.75 45.255 64.02 64.02 0 0 0 18.75 45.255 63.992 63.992 0 0 0 90.5 0 64.02 64.02 0 0 0 18.75-45.255 64.02 64.02 0 0 0-18.75-45.255 63.992 63.992 0 0 0-45.25-18.745Z"
		fill="rgba(42,171,238,1)" />
	<path
		d="M81.733 90.309c18.66-8.128 31.1-13.487 37.32-16.076 17.78-7.393 21.47-8.677 23.88-8.72.53-.009 1.71.122 2.48.745.64.525.82 1.235.91 1.733.08.498.19 1.633.1 2.519-.96 10.12-5.13 34.678-7.25 46.013-.89 4.796-2.66 6.404-4.37 6.561-3.72.342-6.54-2.456-10.14-4.815-5.63-3.693-8.81-5.991-14.28-9.594-6.32-4.164-2.22-6.453 1.38-10.193.94-.979 17.32-15.874 17.63-17.225.04-.169.08-.799-.3-1.131-.37-.333-.92-.219-1.32-.129-.57.128-9.56 6.076-27 17.843-2.55 1.754-4.86 2.609-6.94 2.564-2.28-.049-6.68-1.292-9.95-2.354-4-1.303-7.19-1.992-6.91-4.205.14-1.152 1.73-2.331 4.76-3.536Z"
		fill="rgba(255,255,255,1)" />
</svg>